<svg width="20" height="24" viewBox="0 0 20 24" fill="none" xmlns="http://www.w3.org/2000/svg">
<path id="Vector" d="M20 19.4286V20.5714H0V19.4286L2.22222 17.1429V10.2857C2.22222 6.74286 4.47778 3.62286 7.77778 2.61714C7.77778 2.50286 7.77778 2.4 7.77778 2.28571C7.77778 1.67951 8.0119 1.09812 8.42865 0.66947C8.8454 0.240816 9.41063 0 10 0C10.5894 0 11.1546 0.240816 11.5713 0.66947C11.9881 1.09812 12.2222 1.67951 12.2222 2.28571C12.2222 2.4 12.2222 2.50286 12.2222 2.61714C15.5222 3.62286 17.7778 6.74286 17.7778 10.2857V17.1429L20 19.4286ZM12.2222 21.7143C12.2222 22.3205 11.9881 22.9019 11.5713 23.3305C11.1546 23.7592 10.5894 24 10 24C9.41063 24 8.8454 23.7592 8.42865 23.3305C8.0119 22.9019 7.77778 22.3205 7.77778 21.7143" fill="white"/>
</svg>
