<svg xmlns="http://www.w3.org/2000/svg" width="24" height="28" viewBox="0 0 24 28" fill="none">
    <path
        d="M24 20C24 20.5067 23.72 20.9467 23.2933 21.1733L12.76 27.0933C12.5467 27.2533 12.28 27.3333 12 27.3333C11.72 27.3333 11.4533 27.2533 11.24 27.0933L0.706667 21.1733C0.28 20.9467 0 20.5067 0 20V7.99999C0 7.49332 0.28 7.05332 0.706667 6.82666L11.24 0.906657C11.4533 0.746657 11.72 0.666656 12 0.666656C12.28 0.666656 12.5467 0.746657 12.76 0.906657L23.2933 6.82666C23.72 7.05332 24 7.49332 24 7.99999V20ZM12 3.53332L4.05333 7.99999L12 12.4667L19.9467 7.99999L12 3.53332ZM2.66667 19.2133L10.6667 23.72V14.7733L2.66667 10.28V19.2133ZM21.3333 19.2133V10.28L13.3333 14.7733V23.72L21.3333 19.2133Z"
        fill="#8196B1" />
</svg>