<svg width="18" height="18" viewBox="0 0 18 18" fill="none" xmlns="http://www.w3.org/2000/svg">
<path id="Vector" d="M6.6625 0.25C8.4295 0.25 10.1241 0.934819 11.3736 2.15381C12.6231 3.37279 13.325 5.02609 13.325 6.75C13.325 8.36 12.7202 9.84 11.726 10.98L12.0027 11.25H12.8125L17.9375 16.25L16.4 17.75L11.275 12.75V11.96L10.9982 11.69C9.82975 12.66 8.31275 13.25 6.6625 13.25C4.89549 13.25 3.20086 12.5652 1.9514 11.3462C0.70194 10.1272 0 8.47391 0 6.75C0 5.02609 0.70194 3.37279 1.9514 2.15381C3.20086 0.934819 4.89549 0.25 6.6625 0.25ZM6.6625 2.25C4.1 2.25 2.05 4.25 2.05 6.75C2.05 9.25 4.1 11.25 6.6625 11.25C9.225 11.25 11.275 9.25 11.275 6.75C11.275 4.25 9.225 2.25 6.6625 2.25Z" fill="#4F5464"/>
</svg>
