<svg xmlns="http://www.w3.org/2000/svg" width="24" height="18" viewBox="0 0 24 18" fill="none">
    <path
        d="M13.284 7.69206C14.0129 6.67358 14.4049 5.45252 14.4049 4.20006C14.4049 2.94761 14.0129 1.72655 13.284 0.708063C13.9662 0.24241 14.774 -0.00453616 15.6 6.30948e-05C16.7139 6.30948e-05 17.7822 0.442562 18.5699 1.23021C19.3575 2.01787 19.8 3.08615 19.8 4.20006C19.8 5.31397 19.3575 6.38226 18.5699 7.16991C17.7822 7.95756 16.7139 8.40006 15.6 8.40006C14.774 8.40466 13.9662 8.15772 13.284 7.69206ZM4.2 4.20006C4.2 3.36938 4.44633 2.55735 4.90783 1.86667C5.36933 1.17598 6.02528 0.637657 6.79273 0.319769C7.56018 0.00188119 8.40466 -0.0812928 9.21938 0.0807651C10.0341 0.242823 10.7825 0.642834 11.3698 1.23021C11.9572 1.8176 12.3572 2.56596 12.5193 3.38068C12.6814 4.1954 12.5982 5.03988 12.2803 5.80733C11.9624 6.57478 11.4241 7.23073 10.7334 7.69224C10.0427 8.15374 9.23068 8.40006 8.4 8.40006C7.28609 8.40006 6.2178 7.95756 5.43015 7.16991C4.6425 6.38226 4.2 5.31397 4.2 4.20006ZM6.6 4.20006C6.6 4.55607 6.70557 4.90408 6.90336 5.20009C7.10114 5.4961 7.38226 5.72681 7.71117 5.86305C8.04008 5.99928 8.402 6.03493 8.75116 5.96548C9.10033 5.89602 9.42106 5.72459 9.67279 5.47286C9.92453 5.22112 10.096 4.90039 10.1654 4.55123C10.2349 4.20206 10.1992 3.84014 10.063 3.51123C9.92675 3.18233 9.69603 2.9012 9.40003 2.70342C9.10402 2.50563 8.75601 2.40006 8.4 2.40006C7.92261 2.40006 7.46477 2.58971 7.12721 2.92727C6.78964 3.26484 6.6 3.72267 6.6 4.20006ZM16.8 15.6001V18.0001H0V15.6001C0 15.6001 0 10.8001 8.4 10.8001C16.8 10.8001 16.8 15.6001 16.8 15.6001ZM14.4 15.6001C14.232 14.6641 12.804 13.2001 8.4 13.2001C3.996 13.2001 2.484 14.7721 2.4 15.6001M16.74 10.8001C17.4755 11.3721 18.0768 12.0983 18.5018 12.9275C18.9268 13.7567 19.1651 14.6689 19.2 15.6001V18.0001H24V15.6001C24 15.6001 24 11.2441 16.728 10.8001H16.74Z"
        fill="#8196B1" />
</svg>